<svg width="24" height="25" viewBox="0 0 24 25" fill="none" xmlns="http://www.w3.org/2000/svg">
<path fill-rule="evenodd" clip-rule="evenodd" d="M6 8.96484C6 7.37354 6.63214 5.84742 7.75736 4.7222C8.88258 3.59698 10.4087 2.96484 12 2.96484C13.5913 2.96484 15.1174 3.59698 16.2426 4.7222C17.3679 5.84742 18 7.37354 18 8.96484V11.8818C18 12.5848 18.228 13.2688 18.65 13.8318L20.7 16.5648C20.8671 16.7877 20.9689 17.0527 20.9939 17.3301C21.019 17.6076 20.9662 17.8865 20.8416 18.1357C20.7171 18.3848 20.5256 18.5944 20.2886 18.7408C20.0516 18.8873 19.7786 18.9648 19.5 18.9648H4.5C4.22143 18.9648 3.94837 18.8873 3.7114 18.7408C3.47444 18.5944 3.28294 18.3848 3.15836 18.1357C3.03378 17.8865 2.98104 17.6076 3.00606 17.3301C3.03108 17.0527 3.13286 16.7877 3.3 16.5648L5.35 13.8318C5.77192 13.2693 6 12.585 6 11.8818V8.96484ZM12 22.4648C11.2462 22.4647 10.5126 22.2214 9.90811 21.771C9.30366 21.3206 8.86068 20.6871 8.645 19.9648H15.355C15.1393 20.6871 14.6963 21.3206 14.0919 21.771C13.4874 22.2214 12.7538 22.4647 12 22.4648Z" fill="#333333"/>
</svg>
