<svg width="24" height="24" viewBox="0 0 24 24" fill="none" xmlns="http://www.w3.org/2000/svg">
<path fill-rule="evenodd" clip-rule="evenodd" d="M13.4965 1.91696C13.4639 1.52926 13.2092 1.19487 12.8439 1.06104C12.4782 0.927115 12.0681 1.0176 11.7928 1.29293L12.4998 1.99994C11.7928 1.29293 11.7921 1.29361 11.7919 1.29381L11.7905 1.2952L11.7863 1.29948L11.7719 1.31402C11.7598 1.32635 11.7425 1.34392 11.7206 1.36655C11.6767 1.41179 11.6138 1.4773 11.5346 1.56159C11.3764 1.73012 11.1527 1.97413 10.8855 2.28185C10.352 2.89618 9.63987 3.77002 8.92592 4.8085C7.76035 6.5039 6.50574 8.75734 6.11972 11.0922C4.97244 11.2513 3.89742 11.6235 3.02077 12.2643C1.75724 13.188 1 14.6047 1 16.4444C1 20.0555 3.9007 23 7.5 23C9.24927 23 10.8335 22.3045 12 21.175C13.1665 22.3045 14.7507 23 16.5 23C20.0993 23 23 20.0555 23 16.4444C23 14.6047 22.2428 13.188 20.9792 12.2643C19.8749 11.4571 18.4559 11.0761 16.9741 11.0104C16.1741 10.021 15.5506 8.91075 15.0666 7.80861C15.1921 7.89415 15.3217 7.97565 15.4553 8.05281C17.2365 9.08116 19.3233 9.09984 21.0511 8.29035C21.4306 8.11255 21.6589 7.71698 21.6231 7.29943C21.4603 5.39852 20.4007 3.60069 18.6196 2.57238C17.0055 1.64051 15.1404 1.53774 13.5191 2.129C13.5107 2.0584 13.505 2.00433 13.5014 1.96832L13.4973 1.92597L13.4965 1.91696ZM11.9792 12.2643C10.9234 11.4925 9.57977 11.1104 8.16874 11.0209C8.54912 9.26995 9.52275 7.47068 10.574 5.94155C11.0146 5.30066 11.456 4.72545 11.8488 4.24337C11.9463 4.70337 12.0696 5.21883 12.2248 5.77079C12.6794 7.38679 13.4201 9.36133 14.6207 11.176C13.6618 11.3661 12.769 11.7173 12.0208 12.2643L12 12.2796L11.9792 12.2643ZM16.4553 6.32076C15.497 5.76749 14.8499 4.88212 14.5765 3.89187C15.5708 3.63341 16.6612 3.75114 17.6196 4.30443C18.5778 4.8577 19.225 5.74307 19.4983 6.73332C18.504 6.99178 17.4136 6.87405 16.4553 6.32076ZM3 16.4444C3 15.216 3.47398 14.4104 4.20106 13.8789C4.97005 13.3168 6.11322 13 7.5 13C8.88678 13 10.03 13.3168 10.7989 13.8789C11.526 14.4104 12 15.216 12 16.4444C12 18.9699 9.97583 21 7.5 21C5.02417 21 3 18.9699 3 16.4444ZM13.3417 13.7816C13.7662 14.5306 14 15.4222 14 16.4444C14 17.5718 13.7173 18.6341 13.2189 19.5622C14.0413 20.4482 15.2093 21 16.5 21C18.9758 21 21 18.9699 21 16.4444C21 15.216 20.526 14.4104 19.7989 13.8789C19.03 13.3168 17.8868 13 16.5 13C15.1954 13 14.1064 13.2803 13.3417 13.7816ZM5 17C5.53751 17 5.97598 16.5759 5.99905 16.0441L6.00031 16.0423C6.00531 16.0352 6.01181 16.0274 6.01961 16.0196C6.02741 16.0118 6.03525 16.0053 6.0423 16.0003L6.04411 15.999C6.57594 15.976 7.00004 15.5375 7.00004 15C7.00004 14.4477 6.55232 14 6.00004 14C5.4248 14 4.93326 14.2775 4.6054 14.6054C4.27753 14.9333 4 15.4248 4 16C4 16.5523 4.44771 17 5 17Z" fill="#FF9595"/>
</svg>
