<svg width="24" height="24" viewBox="0 0 24 24" fill="none" xmlns="http://www.w3.org/2000/svg">
<path d="M1.79144 7.70565C1.40172 7.31432 1.40302 6.68116 1.79435 6.29144C2.18568 5.90172 2.81884 5.90302 3.20856 6.29435L6.77703 9.87752C7.16669 10.2688 7.79974 10.2702 8.19109 9.88057L8.32996 9.74233C8.31738 9.73096 8.30502 9.7192 8.29289 9.70708L4.29289 5.70708C3.90237 5.31655 3.90237 4.68339 4.29289 4.29286C4.68342 3.90234 5.31658 3.90234 5.70711 4.29286L9.70711 8.29286C9.72031 8.30607 9.73307 8.31955 9.74538 8.3333L9.87377 8.20549C10.2658 7.81523 10.2665 7.18083 9.87538 6.78968L6.29288 3.2071C5.90237 2.81657 5.90237 2.1834 6.2929 1.79288C6.68343 1.40237 7.3166 1.40237 7.70712 1.7929L11.2896 5.37549C12.463 6.54894 12.4609 8.45211 11.2848 9.62289L9.6021 11.298C8.42806 12.4667 6.5289 12.4626 5.35991 11.2888L1.79144 7.70565Z" fill="#FF9595"/>
<path fill-rule="evenodd" clip-rule="evenodd" d="M20.2929 2.29289C20.5789 2.0069 21.009 1.92134 21.3827 2.07612C21.7564 2.2309 22 2.59554 22 3V4.55621C22 6.8542 21.121 9.06516 19.5431 10.7358L13.6744 16.9498C13.4889 17.1462 13.2318 17.2592 12.9616 17.2631C12.6915 17.2669 12.4313 17.1613 12.2403 16.9703L10.3421 15.0721L3.70711 21.7071C3.31658 22.0976 2.68342 22.0976 2.29289 21.7071C1.90237 21.3166 1.90237 20.6834 2.29289 20.2929L20.2929 2.29289ZM19.9395 5.47471L11.7563 13.6579L12.9269 14.8285L18.0891 9.36258C19.1043 8.28766 19.7475 6.92519 19.9395 5.47471Z" fill="#FF9595"/>
<path d="M17.2072 15.7928L21.7072 20.2928C22.0977 20.6833 22.0977 21.3165 21.7072 21.707C21.3167 22.0976 20.6835 22.0976 20.293 21.707L15.793 17.207L17.2072 15.7928Z" fill="#FF9595"/>
</svg>
