<svg width="24" height="25" viewBox="0 0 24 25" fill="none" xmlns="http://www.w3.org/2000/svg">
<path d="M12 22.8579C6.477 22.8579 2 18.3809 2 12.8579C2 7.33591 6.477 2.85791 12 2.85791C17.523 2.85791 22 7.33591 22 12.8579C22 18.3809 17.523 22.8579 12 22.8579ZM12 7.85791C11.7348 7.85791 11.4804 7.96327 11.2929 8.1508C11.1054 8.33834 11 8.59269 11 8.85791V13.8579C11 14.1231 11.1054 14.3775 11.2929 14.565C11.4804 14.7526 11.7348 14.8579 12 14.8579C12.2652 14.8579 12.5196 14.7526 12.7071 14.565C12.8946 14.3775 13 14.1231 13 13.8579V8.85791C13 8.59269 12.8946 8.33834 12.7071 8.1508C12.5196 7.96327 12.2652 7.85791 12 7.85791ZM12 17.8579C12.2652 17.8579 12.5196 17.7526 12.7071 17.565C12.8946 17.3775 13 17.1231 13 16.8579C13 16.5927 12.8946 16.3383 12.7071 16.1508C12.5196 15.9633 12.2652 15.8579 12 15.8579C11.7348 15.8579 11.4804 15.9633 11.2929 16.1508C11.1054 16.3383 11 16.5927 11 16.8579C11 17.1231 11.1054 17.3775 11.2929 17.565C11.4804 17.7526 11.7348 17.8579 12 17.8579Z" fill="#333333"/>
</svg>
