<svg width="16" height="16" viewBox="0 0 16 16" fill="none" xmlns="http://www.w3.org/2000/svg">
<path d="M7.77913 11.8859L3.53472 7.64153C2.18646 6.29328 1.97729 4.1808 3.03495 2.59431L3.07703 2.53118C3.42707 2.00611 4.16997 1.93255 4.61619 2.37877L6.00719 3.76977C6.39772 4.1603 6.39772 4.79346 6.00719 5.18399L5.6635 5.52768C5.27298 5.9182 5.27298 6.55136 5.6635 6.94189L8.47878 9.75716C8.8693 10.1477 9.50247 10.1477 9.89299 9.75716L10.2367 9.41347C10.6272 9.02295 11.2604 9.02295 11.6509 9.41347L13.0419 10.8045C13.4881 11.2507 13.4146 11.9936 12.8895 12.3436L12.8264 12.3857C11.2399 13.4434 9.12739 13.2342 7.77913 11.8859Z" fill="#333333" fill-opacity="0.48"/>
</svg>
