<svg width="24" height="24" viewBox="0 0 24 24" fill="none" xmlns="http://www.w3.org/2000/svg">
<path d="M15.6475 5.87615C16.0381 6.26668 16.0381 6.89984 15.6475 7.29037L13.9142 9C13.5236 9.39052 12.8905 9.39052 12.4999 9C12.1094 8.60948 12.1094 7.97631 12.4999 7.58579L14.2333 5.87615C14.6238 5.48563 15.257 5.48563 15.6475 5.87615Z" fill="#C8BEE5"/>
<path fill-rule="evenodd" clip-rule="evenodd" d="M20.3573 3.64264C17.7931 1.07843 13.6357 1.07843 11.0715 3.64263L3.64282 11.0713C1.07862 13.6355 1.07861 17.7929 3.64282 20.3571C6.20702 22.9213 10.3644 22.9213 12.9286 20.3571L20.3573 12.9284C22.9215 10.3642 22.9215 6.20684 20.3573 3.64264ZM15.9358 14.5215L18.943 11.5142C20.7262 9.73107 20.7262 6.84001 18.943 5.05685C17.1599 3.27369 14.2688 3.27369 12.4857 5.05685L9.47843 8.0641L15.9358 14.5215ZM14.5216 15.9357L8.06421 9.47831L5.05703 12.4855C3.27388 14.2686 3.27388 17.1597 5.05703 18.9429C6.84019 20.726 9.73125 20.726 11.5144 18.9429L14.5216 15.9357Z" fill="#C8BEE5"/>
</svg>
