<svg width="24" height="24" viewBox="0 0 24 24" fill="none" xmlns="http://www.w3.org/2000/svg">
<path d="M3.01005 20.8586C2.93195 21.4053 3.31184 21.9118 3.85858 21.9899C4.40531 22.0681 4.91184 21.6882 4.98995 21.1414L3.01005 20.8586ZM19.0101 21.1414C19.0882 21.6882 19.5947 22.0681 20.1414 21.9899C20.6882 21.9118 21.0681 21.4053 20.99 20.8586L19.0101 21.1414ZM4 21C4.98995 21.1414 4.98989 21.1419 4.98982 21.1423C4.98981 21.1424 4.98975 21.1428 4.98972 21.143C4.98966 21.1434 4.98961 21.1437 4.98958 21.144C4.98952 21.1444 4.98951 21.1444 4.98957 21.144C4.98969 21.1433 4.99005 21.1409 4.99068 21.1369C4.99193 21.129 4.99425 21.1149 4.99777 21.0949C5.00481 21.0549 5.01665 20.9918 5.03444 20.9087C5.07008 20.7425 5.12924 20.4981 5.22091 20.2019C5.40529 19.6062 5.7154 18.8197 6.21618 18.0408C7.19749 16.5143 8.90864 15 12 15V13C8.09136 13 5.80251 14.9857 4.53382 16.9592C3.9096 17.9303 3.53221 18.8938 3.31034 19.6106C3.19888 19.9707 3.12524 20.2732 3.07884 20.4897C3.05561 20.5981 3.03913 20.6853 3.02811 20.7479C3.0226 20.7792 3.01844 20.8043 3.01549 20.8229C3.01401 20.8322 3.01283 20.8399 3.01193 20.8458C3.01148 20.8488 3.0111 20.8514 3.01079 20.8535C3.01063 20.8546 3.01049 20.8555 3.01037 20.8564C3.01031 20.8568 3.01023 20.8573 3.0102 20.8575C3.01012 20.8581 3.01005 20.8586 4 21ZM12 15C15.0914 15 16.8025 16.5143 17.7838 18.0408C18.2846 18.8197 18.5947 19.6062 18.7791 20.2019C18.8708 20.4981 18.9299 20.7425 18.9656 20.9087C18.9833 20.9918 18.9952 21.0549 19.0022 21.0949C19.0057 21.1149 19.0081 21.129 19.0093 21.1369C19.0099 21.1409 19.0103 21.1433 19.0104 21.144C19.0105 21.1444 19.0105 21.1444 19.0104 21.144C19.0104 21.1437 19.0103 21.1434 19.0103 21.143C19.0102 21.1428 19.0102 21.1424 19.0102 21.1423C19.0101 21.1419 19.0101 21.1414 20 21C20.99 20.8586 20.9899 20.8581 20.9898 20.8575C20.9898 20.8573 20.9897 20.8568 20.9896 20.8564C20.9895 20.8555 20.9894 20.8546 20.9892 20.8535C20.9889 20.8514 20.9885 20.8488 20.9881 20.8458C20.9872 20.8399 20.986 20.8322 20.9845 20.8229C20.9816 20.8043 20.9774 20.7792 20.9719 20.7479C20.9609 20.6853 20.9444 20.5981 20.9212 20.4897C20.8748 20.2732 20.8011 19.9707 20.6897 19.6106C20.4678 18.8938 20.0904 17.9303 19.4662 16.9592C18.1975 14.9857 15.9086 13 12 13V15Z" fill="#FF9595"/>
<circle cx="12" cy="7" r="4" stroke="#FF9595" stroke-width="2"/>
</svg>
