<svg width="1241" height="676" viewBox="0 0 1241 676" fill="none" xmlns="http://www.w3.org/2000/svg">
<g filter="url(#filter0_f)">
<rect x="48" y="200" width="1138" height="363" rx="24" fill="#2F80ED" fill-opacity="0.16"/>
</g>
<path d="M61.202 166.35C62.2041 153.768 72.7802 144.112 85.401 144.257L1162.62 156.589C1175.16 156.732 1185.48 166.511 1186.29 179.029L1206.37 487.509C1207.26 501.183 1196.53 512.826 1182.83 513.063L58.4394 532.542C44.2701 532.787 32.9743 520.767 34.0994 506.64L61.202 166.35Z" fill="#572D80"/>
<g clip-path="url(#clip0)">
<path fill-rule="evenodd" clip-rule="evenodd" d="M1054.97 408.806C1051.99 406.757 1048.63 405.316 1045.08 404.565C1041.54 403.815 1037.88 403.77 1034.32 404.434C1030.76 405.097 1027.36 406.456 1024.32 408.432C1021.29 410.408 1018.67 412.962 1016.62 415.95C1002.48 436.529 983.03 452.887 960.331 463.282C937.632 473.677 912.539 477.719 887.724 474.976C862.909 472.234 839.303 462.811 819.421 447.711C799.54 432.611 784.127 412.4 774.826 389.232L854.792 410.658C861.859 412.552 869.388 411.56 875.725 407.902C882.061 404.244 886.684 398.219 888.578 391.152C890.471 384.085 889.48 376.555 885.822 370.219C882.164 363.883 876.138 359.259 869.071 357.366L735.84 321.667C728.773 319.773 721.243 320.764 714.907 324.423C708.571 328.081 703.948 334.106 702.054 341.173L666.355 474.404C664.461 481.471 665.453 489.001 669.111 495.337C672.769 501.673 678.794 506.297 685.861 508.19C692.928 510.084 700.458 509.092 706.794 505.434C713.13 501.776 717.754 495.751 719.647 488.684L734.648 432.7C750.759 461.256 773.874 485.241 801.815 502.396C829.757 519.551 861.605 529.311 894.36 530.757C927.116 532.203 959.7 525.287 989.044 510.661C1018.39 496.035 1043.53 474.18 1062.09 447.155C1064.14 444.168 1065.58 440.806 1066.33 437.261C1067.08 433.717 1067.13 430.059 1066.46 426.497C1065.8 422.936 1064.44 419.54 1062.47 416.503C1060.49 413.466 1057.94 410.848 1054.95 408.799L1054.97 408.806Z" fill="url(#paint0_linear)"/>
<path d="M1099.27 168.986C1105.61 165.328 1113.14 164.336 1120.2 166.23C1127.27 168.124 1133.3 172.747 1136.96 179.083C1140.61 185.419 1141.6 192.949 1139.71 200.016L1104.01 333.247C1102.12 340.314 1097.5 346.339 1091.16 349.997C1084.82 353.656 1077.29 354.647 1070.23 352.753L936.995 317.054C929.928 315.161 923.903 310.537 920.245 304.201C916.586 297.865 915.595 290.335 917.489 283.268C919.382 276.201 924.006 270.176 930.342 266.518C936.678 262.86 944.208 261.868 951.275 263.762L1031.24 285.188C1021.94 262.02 1006.53 241.809 986.645 226.709C966.763 211.609 943.157 202.186 918.343 199.444C893.528 196.701 868.434 200.743 845.735 211.138C823.036 221.533 803.583 237.891 789.448 258.47C787.448 261.569 784.847 264.236 781.798 266.312C778.75 268.389 775.316 269.833 771.699 270.559C768.083 271.285 764.358 271.279 760.744 270.54C757.13 269.801 753.701 268.345 750.66 266.258C747.618 264.171 745.026 261.496 743.037 258.389C741.048 255.283 739.702 251.81 739.079 248.174C738.456 244.539 738.568 240.815 739.409 237.224C740.25 233.632 741.802 230.246 743.975 227.265C762.539 200.24 787.678 178.385 817.022 163.759C846.366 149.133 878.951 142.217 911.706 143.663C944.461 145.109 976.31 154.869 1004.25 172.024C1032.19 189.179 1055.31 213.164 1071.42 241.72L1086.42 185.736C1088.31 178.669 1092.94 172.644 1099.27 168.986Z" fill="#FF6984"/>
<rect x="840" y="321" width="127" height="40" rx="4" fill="#FFA114"/>
<path d="M857.336 347V335.364H865.041V337.392H859.797V340.165H864.53V342.193H859.797V347H857.336ZM867.896 347V335.364H872.487C873.365 335.364 874.115 335.521 874.737 335.835C875.362 336.146 875.837 336.587 876.163 337.159C876.492 337.727 876.657 338.396 876.657 339.165C876.657 339.937 876.49 340.602 876.157 341.159C875.824 341.712 875.341 342.136 874.708 342.432C874.079 342.727 873.318 342.875 872.424 342.875H869.35V340.898H872.026C872.496 340.898 872.886 340.833 873.197 340.705C873.507 340.576 873.739 340.383 873.89 340.125C874.045 339.867 874.123 339.547 874.123 339.165C874.123 338.778 874.045 338.453 873.89 338.188C873.739 337.922 873.506 337.722 873.191 337.585C872.881 337.445 872.489 337.375 872.015 337.375H870.356V347H867.896ZM874.18 341.705L877.072 347H874.356L871.526 341.705H874.18ZM879.596 347V335.364H887.437V337.392H882.056V340.165H887.033V342.193H882.056V344.972H887.459V347H879.596ZM890.593 347V335.364H898.434V337.392H893.053V340.165H898.03V342.193H893.053V344.972H898.456V347H890.593ZM906.493 347V335.364H911.152C912.008 335.364 912.722 335.491 913.294 335.744C913.866 335.998 914.296 336.35 914.584 336.801C914.871 337.248 915.015 337.763 915.015 338.347C915.015 338.801 914.924 339.201 914.743 339.545C914.561 339.886 914.311 340.167 913.993 340.386C913.678 340.602 913.318 340.756 912.913 340.847V340.96C913.356 340.979 913.771 341.104 914.157 341.335C914.548 341.566 914.864 341.89 915.106 342.307C915.349 342.72 915.47 343.212 915.47 343.784C915.47 344.402 915.316 344.953 915.01 345.438C914.707 345.919 914.258 346.299 913.663 346.58C913.068 346.86 912.335 347 911.464 347H906.493ZM908.953 344.989H910.959C911.644 344.989 912.144 344.858 912.459 344.597C912.773 344.331 912.93 343.979 912.93 343.54C912.93 343.218 912.852 342.934 912.697 342.688C912.542 342.441 912.32 342.248 912.032 342.108C911.748 341.968 911.409 341.898 911.015 341.898H908.953V344.989ZM908.953 340.233H910.777C911.114 340.233 911.413 340.174 911.674 340.057C911.94 339.936 912.148 339.765 912.299 339.545C912.455 339.326 912.532 339.062 912.532 338.756C912.532 338.335 912.383 337.996 912.084 337.739C911.788 337.481 911.368 337.352 910.822 337.352H908.953V340.233ZM918.271 347V335.364H926.112V337.392H920.731V340.165H925.708V342.193H920.731V344.972H926.134V347H918.271ZM928.824 337.392V335.364H938.381V337.392H934.819V347H932.387V337.392H928.824ZM941.723 347H939.087L943.104 335.364H946.274L950.286 347H947.649L944.735 338.023H944.644L941.723 347ZM941.559 342.426H947.786V344.347H941.559V342.426Z" fill="black"/>
</g>
<defs>
<filter id="filter0_f" x="0" y="152" width="1234" height="459" filterUnits="userSpaceOnUse" color-interpolation-filters="sRGB">
<feFlood flood-opacity="0" result="BackgroundImageFix"/>
<feBlend mode="normal" in="SourceGraphic" in2="BackgroundImageFix" result="shape"/>
<feGaussianBlur stdDeviation="24" result="effect1_foregroundBlur"/>
</filter>
<linearGradient id="paint0_linear" x1="950.67" y1="479.189" x2="684.208" y2="407.79" gradientUnits="userSpaceOnUse">
<stop stop-color="#592E8A"/>
<stop offset="1" stop-color="#AB51D5"/>
</linearGradient>
<clipPath id="clip0">
<rect width="551.724" height="551.724" fill="white" transform="matrix(-0.965926 -0.258819 -0.258819 0.965926 1240.72 142.797)"/>
</clipPath>
</defs>
</svg>
