<svg width="16" height="16" viewBox="0 0 16 16" fill="none" xmlns="http://www.w3.org/2000/svg">
<path d="M8.00793 1.5C8.49726 1.50533 8.9846 1.562 9.4626 1.66867C9.56429 1.69137 9.65635 1.74527 9.72591 1.82284C9.79548 1.90041 9.83907 1.99778 9.8506 2.10133L9.96393 3.11933C9.97993 3.26286 10.0294 3.40062 10.1084 3.52154C10.1873 3.64246 10.2935 3.74315 10.4185 3.81553C10.5435 3.8879 10.6837 3.92993 10.8279 3.93823C10.972 3.94654 11.1161 3.92088 11.2486 3.86333L12.1826 3.45333C12.2774 3.41157 12.3829 3.40029 12.4844 3.42108C12.5859 3.44186 12.6785 3.49366 12.7493 3.56933C13.4239 4.29006 13.9263 5.15441 14.2186 6.09733C14.2493 6.19642 14.2483 6.3026 14.216 6.40114C14.1836 6.49968 14.1214 6.58572 14.0379 6.64733L13.2099 7.258C13.0935 7.34353 12.9988 7.45527 12.9336 7.58417C12.8683 7.71307 12.8343 7.85552 12.8343 8C12.8343 8.14448 12.8683 8.28693 12.9336 8.41583C12.9988 8.54473 13.0935 8.65647 13.2099 8.742L14.0386 9.352C14.1223 9.41357 14.1847 9.49968 14.2172 9.59837C14.2497 9.69706 14.2507 9.80342 14.2199 9.90267C13.9275 10.8455 13.4251 11.7099 12.7506 12.4307C12.68 12.5062 12.5877 12.5579 12.4865 12.5788C12.3852 12.5997 12.28 12.5887 12.1853 12.5473L11.2473 12.136C11.115 12.078 10.9709 12.052 10.8267 12.06C10.6825 12.068 10.5422 12.1099 10.4172 12.1822C10.2922 12.2545 10.1859 12.3552 10.1071 12.4762C10.0282 12.5972 9.97895 12.7351 9.96326 12.8787L9.8506 13.896C9.83924 13.9984 9.7965 14.0948 9.72824 14.1721C9.65998 14.2493 9.56953 14.3035 9.46926 14.3273C8.50363 14.5571 7.49756 14.5571 6.53193 14.3273C6.43166 14.3035 6.34121 14.2493 6.27295 14.1721C6.20469 14.0948 6.16196 13.9984 6.1506 13.896L6.0386 12.88C6.02227 12.7368 5.97256 12.5994 5.89348 12.4789C5.81439 12.3584 5.70813 12.2581 5.58325 12.1861C5.45836 12.1142 5.31833 12.0725 5.17441 12.0645C5.03049 12.0565 4.8867 12.0823 4.7546 12.14L3.81726 12.5507C3.72245 12.5922 3.61708 12.6033 3.5157 12.5824C3.41432 12.5615 3.32192 12.5096 3.25126 12.434C2.5764 11.7124 2.07402 10.8472 1.78193 9.90333C1.75119 9.80408 1.75214 9.69772 1.78464 9.59903C1.81714 9.50035 1.87957 9.41424 1.96326 9.35267L2.79193 8.742C2.90849 8.65655 3.00329 8.54485 3.06863 8.41594C3.13397 8.28702 3.16802 8.14453 3.16802 8C3.16802 7.85547 3.13397 7.71298 3.06863 7.58406C3.00329 7.45515 2.90849 7.34344 2.79193 7.258L1.96326 6.64867C1.87969 6.58701 1.81739 6.50086 1.78501 6.40218C1.75263 6.3035 1.75179 6.19718 1.7826 6.098C2.07495 5.15508 2.57732 4.29074 3.25193 3.57C3.32272 3.49433 3.41527 3.44252 3.51679 3.42174C3.6183 3.40096 3.72377 3.41223 3.8186 3.454L4.75193 3.864C4.88461 3.92151 5.02893 3.94711 5.17329 3.93872C5.31766 3.93034 5.45805 3.88821 5.58318 3.81573C5.70831 3.74324 5.81469 3.64242 5.89379 3.52136C5.97288 3.4003 6.02248 3.26237 6.0386 3.11867L6.15193 2.10133C6.16337 1.99757 6.207 1.89999 6.2767 1.82228C6.34641 1.74456 6.43868 1.69062 6.5406 1.668C7.0186 1.562 7.50726 1.506 8.00793 1.5ZM7.99993 6C7.4695 6 6.96079 6.21071 6.58572 6.58579C6.21064 6.96086 5.99993 7.46957 5.99993 8C5.99993 8.53043 6.21064 9.03914 6.58572 9.41421C6.96079 9.78929 7.4695 10 7.99993 10C8.53036 10 9.03907 9.78929 9.41414 9.41421C9.78922 9.03914 9.99993 8.53043 9.99993 8C9.99993 7.46957 9.78922 6.96086 9.41414 6.58579C9.03907 6.21071 8.53036 6 7.99993 6Z" fill="#2F80ED"/>
</svg>
