<svg width="24" height="24" viewBox="0 0 24 24" fill="none" xmlns="http://www.w3.org/2000/svg">
<path d="M2 4C2 3.73478 2.10536 3.48043 2.29289 3.29289C2.48043 3.10536 2.73478 3 3 3H21C21.2652 3 21.5196 3.10536 21.7071 3.29289C21.8946 3.48043 22 3.73478 22 4C22 4.26522 21.8946 4.51957 21.7071 4.70711C21.5196 4.89464 21.2652 5 21 5H3C2.73478 5 2.48043 4.89464 2.29289 4.70711C2.10536 4.51957 2 4.26522 2 4Z" fill="#C8BEE5"/>
<path d="M2 20C2 19.7348 2.10536 19.4804 2.29289 19.2929C2.48043 19.1054 2.73478 19 3 19H21C21.2652 19 21.5196 19.1054 21.7071 19.2929C21.8946 19.4804 22 19.7348 22 20C22 20.2652 21.8946 20.5196 21.7071 20.7071C21.5196 20.8946 21.2652 21 21 21H3C2.73478 21 2.48043 20.8946 2.29289 20.7071C2.10536 20.5196 2 20.2652 2 20Z" fill="#C8BEE5"/>
<path d="M3 11C2.73478 11 2.48043 11.1054 2.29289 11.2929C2.10536 11.4804 2 11.7348 2 12C2 12.2652 2.10536 12.5196 2.29289 12.7071C2.48043 12.8946 2.73478 13 3 13H17C17.2652 13 17.5196 12.8946 17.7071 12.7071C17.8946 12.5196 18 12.2652 18 12C18 11.7348 17.8946 11.4804 17.7071 11.2929C17.5196 11.1054 17.2652 11 17 11H3Z" fill="#C8BEE5"/>
</svg>
