<svg width="40" height="40" viewBox="0 0 40 40" fill="none" xmlns="http://www.w3.org/2000/svg">
<path fill-rule="evenodd" clip-rule="evenodd" d="M8.01626 22.1139C8.26393 22.0265 8.52641 21.9886 8.7887 22.0026C9.051 22.0166 9.30797 22.0821 9.54495 22.1953C9.78193 22.3086 9.99428 22.4675 10.1699 22.6629C10.3454 22.8582 10.4808 23.0862 10.5683 23.3339C11.172 25.0403 12.2274 26.5509 13.6219 27.7048C15.0164 28.8587 16.6979 29.6126 18.4871 29.8862C20.2764 30.1598 22.1063 29.9428 23.7819 29.2585C25.4576 28.5741 26.9162 27.4479 28.0023 25.9999H22.0003C21.4698 25.9999 20.9611 25.7892 20.586 25.4141C20.211 25.0391 20.0003 24.5304 20.0003 23.9999C20.0003 23.4695 20.211 22.9608 20.586 22.5857C20.9611 22.2106 21.4698 21.9999 22.0003 21.9999H32.0003C32.5307 21.9999 33.0394 22.2106 33.4145 22.5857C33.7895 22.9608 34.0003 23.4695 34.0003 23.9999V33.9999C34.0003 34.5304 33.7895 35.0391 33.4145 35.4142C33.0394 35.7892 32.5307 35.9999 32.0003 35.9999C31.4698 35.9999 30.9611 35.7892 30.586 35.4142C30.211 35.0391 30.0003 34.5304 30.0003 33.9999V29.7979C28.3362 31.4954 26.2674 32.7413 23.9888 33.4184C21.7101 34.0954 19.2967 34.1813 16.9757 33.6679C14.6547 33.1545 12.5026 32.0588 10.7221 30.4839C8.94155 28.9091 7.59122 26.9069 6.79826 24.6659C6.71078 24.4183 6.67294 24.1558 6.68691 23.8935C6.70088 23.6312 6.76638 23.3742 6.87967 23.1372C6.99296 22.9003 7.15182 22.6879 7.34718 22.5123C7.54254 22.3368 7.77057 22.2014 8.01826 22.1139H8.01626Z" fill="url(#paint0_linear)"/>
<path d="M9.41421 4.48813C9.03914 4.11306 8.53043 3.90234 8 3.90234C7.46957 3.90234 6.96086 4.11306 6.58579 4.48813C6.21071 4.8632 6 5.37191 6 5.90234V15.9023C6 16.4328 6.21071 16.9415 6.58579 17.3166C6.96086 17.6916 7.46957 17.9023 8 17.9023H18C18.5304 17.9023 19.0391 17.6916 19.4142 17.3166C19.7893 16.9415 20 16.4328 20 15.9023C20 15.3719 19.7893 14.8632 19.4142 14.4881C19.0391 14.1131 18.5304 13.9023 18 13.9023H11.998C13.0841 12.4544 14.5427 11.3282 16.2183 10.6438C17.894 9.95944 19.7239 9.7425 21.5131 10.0161C23.3023 10.2897 24.9838 11.0436 26.3784 12.1975C27.7729 13.3514 28.8283 14.862 29.432 16.5683C29.5139 16.8229 29.646 17.0585 29.8205 17.2611C29.9951 17.4637 30.2084 17.6293 30.4481 17.748C30.6877 17.8667 30.9487 17.9361 31.2156 17.9522C31.4826 17.9683 31.75 17.9307 32.0022 17.8416C32.2543 17.7525 32.486 17.6138 32.6836 17.4336C32.8812 17.2534 33.0406 17.0354 33.1525 16.7925C33.2644 16.5496 33.3264 16.2867 33.3349 16.0194C33.3434 15.7521 33.2982 15.4859 33.202 15.2363C32.409 12.9954 31.0587 10.9932 29.2782 9.41834C27.4977 7.84346 25.3455 6.74773 23.0246 6.23435C20.7036 5.72098 18.2901 5.80686 16.0115 6.48391C13.7329 7.16096 11.6641 8.40689 10 10.1043V5.90234C10 5.37191 9.78929 4.8632 9.41421 4.48813Z" fill="#FF6984"/>
<defs>
<linearGradient id="paint0_linear" x1="14" y1="29" x2="34" y2="29" gradientUnits="userSpaceOnUse">
<stop stop-color="#592E8A"/>
<stop offset="1" stop-color="#AB51D5"/>
</linearGradient>
</defs>
</svg>
