<svg width="61" height="48" viewBox="0 0 61 48" fill="none" xmlns="http://www.w3.org/2000/svg">
<mask id="path-1-outside-1_2173_12511" maskUnits="userSpaceOnUse" x="-1.19471" y="-1.11654" width="45.8884" height="47.7634" fill="black">
<rect fill="white" x="-1.19471" y="-1.11654" width="45.8884" height="47.7634"/>
<path fill-rule="evenodd" clip-rule="evenodd" d="M40.044 31.8729C36.5917 34.4751 32.1817 35.7876 27.572 35.2121C18.0733 34.0262 11.3231 25.2727 12.4951 15.6607C13.2321 9.61606 16.9265 4.67137 21.9295 2.12857C12.1217 2.31561 3.68884 9.7765 2.45281 19.914C1.0982 31.024 8.90033 41.1417 19.8794 42.5124C28.3674 43.5722 36.2694 39.0936 40.044 31.8729Z"/>
</mask>
<path d="M40.044 31.8729L40.7528 32.2454L39.5617 31.2332L40.044 31.8729ZM21.9295 2.12857L22.2932 2.84231L21.912 1.32844L21.9295 2.12857ZM39.5617 31.2332C36.2672 33.7164 32.0632 34.9666 27.6688 34.418L27.4752 36.0062C32.3003 36.6086 36.9162 35.2338 40.5263 32.5126L39.5617 31.2332ZM27.6688 34.418C18.6171 33.2878 12.1694 24.9419 13.2889 15.7598L11.7013 15.5616C10.4769 25.6035 17.5295 34.7645 27.4752 36.0062L27.6688 34.418ZM13.2889 15.7598C13.9927 9.98767 17.5192 5.26873 22.2932 2.84231L21.5658 1.41484C16.3338 4.07402 12.4715 9.24445 11.7013 15.5616L13.2889 15.7598ZM3.24664 20.0132C4.4347 10.2692 12.5379 3.10814 21.947 2.92871L21.912 1.32844C11.7055 1.52308 2.94299 9.28385 1.65897 19.8149L3.24664 20.0132ZM19.9762 41.7183C9.44416 40.4034 1.94446 30.6932 3.24664 20.0132L1.65897 19.8149C0.251943 31.3549 8.3565 41.88 19.7825 43.3066L19.9762 41.7183ZM39.3352 31.5004C35.7075 38.44 28.1185 42.7349 19.9762 41.7183L19.7825 43.3066C28.6164 44.4095 36.8312 39.7472 40.7528 32.2454L39.3352 31.5004Z" fill="white" mask="url(#path-1-outside-1_2173_12511)"/>
<path d="M44.6869 18.5889C46.922 18.5889 48.7339 16.7515 48.7339 14.485C48.7339 12.2185 46.922 10.3811 44.6869 10.3811C44.3253 10.3811 43.9748 10.4292 43.6412 10.5194C43.2859 6.79492 40.1905 3.8833 36.4244 3.8833C33.6335 3.8833 31.2109 5.48232 29.9988 7.8262C29.2868 7.49057 28.493 7.3032 27.656 7.3032C24.5828 7.3032 22.0915 9.82958 22.0915 12.946C22.0915 16.0625 24.5828 18.5889 27.656 18.5889C27.7125 18.5889 27.7687 18.588 27.8247 18.5863V18.5889H44.6869Z" fill="#5D51FF"/>
<path fill-rule="evenodd" clip-rule="evenodd" d="M40.4659 31.8728C37.0136 34.4751 32.6036 35.7876 27.9939 35.2121C18.4952 34.0261 11.745 25.2726 12.917 15.6606C13.654 9.61605 17.3483 4.67138 22.3513 2.12857C12.5435 2.31563 4.11072 9.77652 2.87468 19.914C1.52008 31.024 9.32221 41.1417 20.3012 42.5124C28.7893 43.5722 36.6913 39.0936 40.4659 31.8728Z" fill="#9F7DFF"/>
<path d="M35.0098 18.5889C37.6765 18.5889 39.84 16.3966 39.8538 13.687C39.8677 16.3966 42.0311 18.5889 44.6979 18.5889C44.6979 18.5889 44.6979 18.5889 44.6979 18.5889C42.0311 18.5889 39.8677 20.7811 39.8538 23.4907C39.84 20.7811 37.6765 18.5889 35.0098 18.5889Z" fill="#6A5CFC"/>
<g style="mix-blend-mode:multiply">
<path d="M13.4973 48C9.77224 48 6.75244 44.9377 6.75244 41.1602C6.75244 37.3827 9.77224 34.3204 13.4973 34.3204C14.1 34.3204 14.6843 34.4006 15.2402 34.551C15.8323 28.3434 20.9914 23.4907 27.2682 23.4907C31.9197 23.4907 35.9574 26.1558 37.9775 30.0622C39.1643 29.5028 40.4873 29.1906 41.8822 29.1906C47.0042 29.1906 51.1564 33.4012 51.1564 38.5953C51.1564 43.7894 47.0042 48 41.8822 48C41.7882 48 41.6945 47.9986 41.6011 47.9958V48H13.4973Z" fill="#EA95FF"/>
</g>
<path fill-rule="evenodd" clip-rule="evenodd" d="M52.7534 17C52.7534 21.2414 56.1508 24.6797 60.3421 24.6804V24.6804C56.1508 24.681 52.7534 28.1194 52.7534 32.3608C52.7534 32.3608 52.7534 32.3608 52.7534 32.3608H52.7525V32.3608C52.7525 28.119 49.3544 24.6804 45.1626 24.6804H45.1624V24.6804H45.1626C49.3544 24.6804 52.7525 21.2418 52.7525 17H52.7534Z" fill="#6A5DFB"/>
</svg>
