<svg width="8" height="17" viewBox="0 0 8 17" fill="none" xmlns="http://www.w3.org/2000/svg">
<path d="M0.426963 3.57302L3.82296 0.177023C3.84619 0.153742 3.87377 0.135271 3.90415 0.122667C3.93452 0.110064 3.96708 0.103577 3.99996 0.103577C4.03285 0.103577 4.06541 0.110064 4.09578 0.122667C4.12615 0.135271 4.15374 0.153742 4.17696 0.177023L7.57296 3.57302C7.60802 3.60799 7.6319 3.65257 7.64158 3.70113C7.65127 3.74968 7.64631 3.80002 7.62736 3.84576C7.6084 3.89149 7.57628 3.93057 7.53509 3.95803C7.4939 3.9855 7.44547 4.00011 7.39596 4.00002H0.603963C0.554453 4.00011 0.506031 3.9855 0.464836 3.95803C0.423642 3.93057 0.39153 3.89149 0.372571 3.84576C0.353612 3.80002 0.348661 3.74968 0.358344 3.70113C0.368027 3.65257 0.39191 3.60799 0.426963 3.57302V3.57302Z" fill="#333333"/>
<path d="M0.426963 13.427L3.82296 16.823C3.84619 16.8463 3.87377 16.8648 3.90415 16.8774C3.93452 16.89 3.96708 16.8964 3.99996 16.8964C4.03285 16.8964 4.06541 16.89 4.09578 16.8774C4.12615 16.8648 4.15374 16.8463 4.17696 16.823L7.57296 13.427C7.60802 13.392 7.6319 13.3474 7.64158 13.2989C7.65127 13.2503 7.64631 13.2 7.62736 13.1543C7.6084 13.1085 7.57628 13.0695 7.53509 13.042C7.4939 13.0145 7.44547 12.9999 7.39596 13H0.603963C0.554453 12.9999 0.506031 13.0145 0.464836 13.042C0.423642 13.0695 0.39153 13.1085 0.372571 13.1543C0.353612 13.2 0.348661 13.2503 0.358344 13.2989C0.368027 13.3474 0.39191 13.392 0.426963 13.427Z" fill="#333333"/>
</svg>
