<svg width="10" height="10" viewBox="0 0 10 10" fill="none" xmlns="http://www.w3.org/2000/svg">
<path d="M2.03601 0.975997C1.89384 0.843517 1.70579 0.771394 1.51149 0.774823C1.31719 0.778251 1.1318 0.856963 0.994391 0.994376C0.856978 1.13179 0.778266 1.31717 0.774838 1.51147C0.77141 1.70578 0.843533 1.89382 0.976013 2.036L3.93901 5L0.976013 7.963C0.902326 8.03166 0.843224 8.11446 0.802232 8.20646C0.76124 8.29846 0.739198 8.39777 0.737421 8.49848C0.735645 8.59918 0.754169 8.69921 0.79189 8.79259C0.829611 8.88598 0.885756 8.97082 0.956974 9.04204C1.02819 9.11325 1.11303 9.1694 1.20642 9.20712C1.2998 9.24484 1.39983 9.26336 1.50054 9.26159C1.60124 9.25981 1.70055 9.23777 1.79255 9.19678C1.88455 9.15579 1.96735 9.09668 2.03601 9.023L5.00001 6.06L7.96301 9.024C8.1044 9.16068 8.29382 9.23637 8.49047 9.23476C8.68711 9.23314 8.87526 9.15435 9.01438 9.01536C9.15351 8.87637 9.23247 8.6883 9.23427 8.49165C9.23607 8.295 9.16057 8.10551 9.02401 7.964L6.06101 5L9.02401 2.036C9.0977 1.96734 9.1568 1.88453 9.19779 1.79254C9.23878 1.70054 9.26083 1.60122 9.2626 1.50052C9.26438 1.39982 9.24586 1.29979 9.20813 1.2064C9.17041 1.11301 9.11427 1.02818 9.04305 0.956959C8.97183 0.88574 8.887 0.829596 8.79361 0.791875C8.70022 0.754154 8.60019 0.735629 8.49949 0.737406C8.39879 0.739183 8.29947 0.761224 8.20748 0.802216C8.11548 0.843208 8.03267 0.902311 7.96401 0.975997L5.00001 3.939L2.03601 0.975997Z" fill="#E21B1B"/>
</svg>
